<svg width="128" height="93" viewBox="0 0 128 93" fill="none" xmlns="http://www.w3.org/2000/svg">
<path d="M3.11193 84.6011H5.84087C6.85576 84.6011 7.74379 84.4624 8.50778 84.185C9.28586 83.8935 9.89762 83.4774 10.3402 82.934C10.7997 82.3934 11.0281 81.7396 11.0281 80.9754C11.0281 80.1404 10.7997 79.4526 10.3402 78.912C9.8948 78.3573 9.28586 77.9469 8.50778 77.6836C7.74379 77.4063 6.85576 77.2676 5.84087 77.2676H0.487305V91.8581H6.19608C7.34911 91.8581 8.34709 91.7195 9.19565 91.4421C10.0414 91.1506 10.6954 90.7062 11.155 90.109C11.6258 89.5118 11.8626 88.7278 11.8626 87.7541C11.8626 87.0182 11.6962 86.3927 11.3636 85.8776C11.045 85.3483 10.6137 84.9181 10.0724 84.5841C9.53113 84.236 8.92783 83.9869 8.2597 83.834C7.59438 83.6812 6.9065 83.6048 6.1989 83.6048H3.11475V85.5209H5.8014C6.14815 85.5209 6.46108 85.5549 6.74017 85.6257C7.03055 85.6823 7.28991 85.7785 7.5098 85.9172C7.73251 86.0559 7.90448 86.237 8.03134 86.4578C8.15539 86.6814 8.22023 86.9446 8.22023 87.2503C8.22023 87.723 8.11028 88.0966 7.88757 88.3768C7.67895 88.64 7.39422 88.8353 7.03337 88.9598C6.67251 89.0702 6.26374 89.1268 5.80422 89.1268H4.01406V79.9989H5.47156C6.08331 79.9989 6.55411 80.1234 6.88677 80.3753C7.21943 80.6244 7.38576 81.0008 7.38576 81.5018C7.38576 81.8358 7.30964 82.1188 7.15741 82.3566C7.00517 82.5802 6.78246 82.7528 6.49209 82.8774C6.21299 83.0019 5.8747 83.0642 5.47156 83.0642H3.11757V84.6067L3.11193 84.6011Z" fill="white"/>
<path d="M18.389 89.0391H26.0966L25.8682 86.3502H18.6399L18.389 89.0391ZM22.2005 82.6198L24.2613 87.3521L24.1373 88.2494L25.888 91.8553H29.8883L22.2033 76.3477L14.5381 91.8553H18.5159L20.3286 88.105L20.1623 87.3352L22.2033 82.6254L22.2005 82.6198Z" fill="white"/>
<path d="M35.8674 84.5595C35.8674 83.6566 36.0675 82.8839 36.4707 82.2471C36.8738 81.6074 37.401 81.1206 38.055 80.7894C38.7203 80.4555 39.4505 80.2885 40.2427 80.2885C40.9362 80.2885 41.5479 80.379 42.0751 80.5602C42.6023 80.7272 43.0759 80.9621 43.4903 81.2678C43.9076 81.5593 44.2741 81.8735 44.5954 82.2046V78.4119C44.0119 77.9534 43.3719 77.5911 42.6784 77.3279C41.9849 77.0647 41.1025 76.9316 40.0341 76.9316C38.8669 76.9316 37.79 77.1128 36.8061 77.4722C35.8194 77.8345 34.9737 78.3553 34.2661 79.0346C33.5585 79.7167 33.0087 80.5206 32.6197 81.4517C32.2307 82.3829 32.0361 83.4189 32.0361 84.5567C32.0361 85.6945 32.2307 86.7304 32.6197 87.6616C33.0087 88.5928 33.5585 89.3994 34.2661 90.0787C34.9737 90.7608 35.8222 91.2816 36.8061 91.6411C37.79 92.0005 38.8669 92.1817 40.0341 92.1817C41.1025 92.1817 41.9849 92.0487 42.6784 91.7854C43.3719 91.5222 44.0119 91.1599 44.5954 90.7014V86.9087C44.2769 87.2427 43.9076 87.554 43.4903 87.8456C43.0731 88.1371 42.6023 88.3748 42.0751 88.5532C41.5479 88.7343 40.9362 88.8249 40.2427 88.8249C39.4505 88.8249 38.7231 88.6579 38.055 88.3239C37.401 87.9899 36.8738 87.5031 36.4707 86.8663C36.0675 86.2124 35.8674 85.4426 35.8674 84.5538V84.5595Z" fill="white"/>
<path d="M51.5424 89.0391H59.2499L59.0216 86.3502H51.7933L51.5424 89.0391ZM55.3538 82.6198L57.4146 87.3521L57.2906 88.2494L59.0413 91.8553H63.0417L55.3567 76.3477L47.6914 91.8553H51.6692L53.4819 88.105L53.3156 87.3352L55.3567 82.6254L55.3538 82.6198Z" fill="white"/>
<path d="M66.6504 77.2656V91.8562H76.0241V88.8334H70.1715V77.2656H66.6504Z" fill="white"/>
<path d="M80.7174 85.7483H91.7572V82.5811H80.7174V85.7483ZM89.5272 77.2656V91.8562H93.0483V77.2656H89.5272ZM79.7363 77.2656V91.8562H83.2574V77.2656H79.7363Z" fill="white"/>
<path d="M100.488 89.0391H108.195L107.967 86.3502H100.739L100.488 89.0391ZM104.299 82.6198L106.36 87.3521L106.236 88.2494L107.987 91.8553H111.987L104.302 76.3477L96.6367 91.8553H100.615L102.427 88.105L102.261 87.3352L104.302 82.6254L104.299 82.6198Z" fill="white"/>
<path d="M115.491 77.2656V87.0615C115.491 87.9786 115.638 88.7767 115.928 89.4589C116.233 90.141 116.65 90.7014 117.177 91.1458C117.718 91.576 118.344 91.9043 119.052 92.1251C119.759 92.3487 120.523 92.4591 121.344 92.4591C122.164 92.4591 122.928 92.3487 123.636 92.1251C124.357 91.9015 124.983 91.576 125.51 91.1458C126.052 90.7014 126.469 90.1382 126.759 89.4589C127.064 88.7767 127.219 87.9786 127.219 87.0615V77.2656H123.698V86.8125C123.698 87.5484 123.503 88.1456 123.114 88.6041C122.725 89.0626 122.136 89.2919 121.344 89.2919C120.551 89.2919 119.982 89.0626 119.593 88.6041C119.204 88.1456 119.009 87.5484 119.009 86.8125V77.2656H115.488H115.491Z" fill="white"/>
<path d="M0.487305 24.5699L3.46151 28.8693L0.532411 33.2422L35.1459 56.6239H57.6624V0.429688H35.1177L0.487305 24.5699ZM50.4031 7.71507V49.3414H37.3561L7.05028 28.8664L37.3843 7.71507H50.4031Z" fill="white"/>
<path d="M34.4668 27.759C37.393 27.759 39.7724 25.3702 39.7724 22.4322C39.7724 19.4943 37.393 17.1055 34.4668 17.1055C31.5405 17.1055 29.1611 19.4943 29.1611 22.4322C29.1611 25.3702 31.5405 27.759 34.4668 27.759ZM34.4668 20.751C35.3914 20.751 36.1413 21.5067 36.1413 22.4322C36.1413 23.3578 35.3886 24.1135 34.4668 24.1135C33.5449 24.1135 32.7922 23.3578 32.7922 22.4322C32.7922 21.5067 33.5449 20.751 34.4668 20.751Z" fill="white"/>
<path d="M78.1687 0.429688H67.2529V56.6268H78.1687V0.429688Z" fill="white"/>
<path d="M88.1768 9.08984V47.965H99.0925V9.08984H88.1768Z" fill="white"/>
<path d="M127.363 6.60232L122.289 4.58143L117.214 2.56055L106.964 28.5009L107.032 28.5292L106.964 28.5575L117.214 54.4979L127.36 50.4561L118.697 28.5321L127.36 6.60798L127.363 6.60232Z" fill="white"/>
</svg>
