<svg width="221" height="69" viewBox="0 0 221 69" fill="none" xmlns="http://www.w3.org/2000/svg">
<g clip-path="url(#clip0_281_385)">
<path d="M48.0698 5.04554C47.7821 2.13599 43.1464 1.04899 42.6347 0.92144C42.1231 0.793891 37.7751 -0.229339 32.5966 3.79839C27.4181 7.82611 25.1477 17.0649 25.1477 17.0649L24.6999 19.0476H23.9969C19.8615 19.0561 15.899 20.7029 12.9753 23.6266C10.0515 26.5504 8.40474 30.5143 8.39624 34.6483V35.2563C8.39624 38.3288 9.30325 41.3333 11.0025 43.8928C12.7032 46.4523 15.1209 48.452 17.9539 49.6425L17.6025 51.3049C16.9633 54.4695 15.7799 58.7211 14.4378 61.6619C13.0957 64.6026 11.4971 65.9135 9.86589 66.3613C8.23609 66.8092 7.27664 65.9135 6.86139 65.5309C6.44615 65.1468 4.87871 62.6851 4.87871 62.6851C4.57542 62.2628 4.16018 61.9354 3.67974 61.737C3.19931 61.54 2.67352 61.4805 2.16191 61.5655C1.93799 61.5981 0.308189 62.0771 0.466917 64.2823C0.754612 67.1918 5.39032 68.31 5.90194 68.4064C6.41355 68.5028 10.7616 69.5572 15.9713 65.5294C21.1824 61.5017 23.3875 52.2629 23.3875 52.2629L23.7078 50.857H24.6035C28.7389 50.8485 32.7015 49.2017 35.6252 46.278C38.5489 43.3543 40.1957 39.3903 40.2042 35.2563V34.6483C40.2042 31.546 39.2802 28.516 37.5483 25.941C35.8179 23.3673 33.3591 21.3676 30.485 20.1984L30.9328 18.0244C31.572 14.8909 32.7553 10.6081 34.0974 7.69856C35.4395 4.78902 37.0382 3.41432 38.6694 2.9679C40.2992 2.52006 41.2586 3.41574 41.6739 3.79839C42.0891 4.18245 43.6565 6.64415 43.6565 6.64415C43.9598 7.06507 44.3751 7.39386 44.8555 7.59227C45.3359 7.79068 45.8617 7.84879 46.3734 7.76375C46.5973 7.73116 48.2271 7.25214 48.0683 5.04695L48.0698 5.04554ZM11.8826 35.2549V34.6469C11.8996 31.461 13.1637 28.4083 15.4044 26.1422C17.645 23.8775 20.6849 22.5807 23.8708 22.5311L21.7932 31.4497C21.7294 31.6736 20.2909 37.9079 20.2909 37.9079C20.2909 37.9079 19.4278 42.3197 18.6611 46.1235C16.6317 45.123 14.9211 43.5754 13.7235 41.655C12.526 39.7347 11.8883 37.5182 11.884 35.2549H11.8826ZM36.7221 34.6469V35.2549C36.7221 36.8464 36.4089 38.421 35.7995 39.892C35.1901 41.3617 34.2987 42.6981 33.1734 43.822C32.0481 44.9472 30.7131 45.8401 29.2421 46.4481C27.7724 47.0575 26.1965 47.3707 24.6049 47.3707H24.5086L28.121 31.4511L29.7508 23.6833C31.8271 24.6697 33.5816 26.223 34.8145 28.1617C36.0475 30.1019 36.7079 32.3496 36.7193 34.6483L36.7221 34.6469Z" fill="white"/>
<path d="M69.3604 30.7482V11.1836H83.4262V14.3482H73.0692V19.5905H82.4044V22.7552H73.0692V30.7468H69.3604V30.7482Z" fill="white"/>
<path d="M86.9746 13.4537V10.1289H90.4595V13.4537H86.9746ZM86.9746 30.748V15.7552H90.4595V30.748H86.9746Z" fill="white"/>
<path d="M94.7422 30.748V10.1289H98.2271V30.748H94.7422Z" fill="white"/>
<path d="M108.936 31.1C107.557 31.1397 106.188 30.8549 104.939 30.2681C103.881 29.6885 103.039 28.7786 102.541 27.6789C101.975 26.2787 101.702 24.7764 101.742 23.2671C101.697 21.7464 101.969 20.2328 102.541 18.8241C103.03 17.7258 103.875 16.8244 104.939 16.266C106.179 15.6538 107.553 15.3576 108.936 15.403C110.202 15.3675 111.456 15.6524 112.58 16.2334C113.579 16.7876 114.358 17.6677 114.785 18.7277C115.296 19.8459 115.52 21.2858 115.52 23.0758V24.099H105.322C105.342 24.904 105.482 25.7004 105.737 26.4643C105.956 27.0553 106.359 27.5612 106.888 27.9028C107.533 28.2217 108.247 28.3761 108.966 28.3506C109.375 28.3506 109.785 28.2968 110.18 28.1905C110.554 28.0814 110.903 27.8957 111.203 27.6477C111.503 27.4139 111.734 27.1049 111.875 26.752C112.038 26.3566 112.113 25.9314 112.099 25.5049H115.52C115.542 26.3609 115.377 27.2112 115.041 27.9978C114.718 28.678 114.236 29.2704 113.635 29.7239C113.001 30.1902 112.285 30.5374 111.525 30.7471C110.682 30.9824 109.81 31.1 108.936 31.0986V31.1ZM105.387 21.6699H111.909C111.931 21.1285 111.854 20.5871 111.685 20.0713C111.579 19.6702 111.382 19.2975 111.11 18.9843C110.866 18.6966 110.544 18.4854 110.183 18.3777C109.781 18.2473 109.36 18.1821 108.936 18.1864C108.3 18.1736 107.669 18.2927 107.082 18.5378C106.581 18.7816 106.175 19.1869 105.931 19.6886C105.625 20.3079 105.441 20.9811 105.387 21.6713V21.6699Z" fill="white"/>
<path d="M125.304 31.0995C123.957 31.1406 122.619 30.8558 121.404 30.2676C120.372 29.6823 119.563 28.7725 119.103 27.6784C118.591 26.5276 118.336 25.0253 118.336 23.2666C118.336 21.5078 118.591 19.9744 119.103 18.8236C119.577 17.7366 120.398 16.8381 121.437 16.2655C122.633 15.6561 123.964 15.3599 125.304 15.4024C126.214 15.3854 127.121 15.5158 127.99 15.7865C128.731 16.0175 129.417 16.3987 130.004 16.9047C130.572 17.4248 131.01 18.0711 131.282 18.791C131.58 19.6215 131.722 20.4988 131.697 21.3803H128.149C128.166 20.7808 128.068 20.1841 127.861 19.6215C127.656 19.1892 127.32 18.8321 126.902 18.5983C126.389 18.3375 125.815 18.217 125.239 18.2468C124.567 18.2071 123.901 18.3984 123.353 18.7896C122.821 19.1907 122.429 19.7505 122.233 20.3882C121.981 21.2598 121.862 22.1654 121.882 23.0738V23.4579C121.868 24.3649 121.985 25.2705 122.233 26.1435C122.429 26.7898 122.834 27.3524 123.384 27.7421C123.984 28.1248 124.686 28.3147 125.398 28.2863C125.956 28.3076 126.509 28.1744 126.997 27.9023C127.439 27.6769 127.79 27.3028 127.987 26.8479C128.23 26.3051 128.349 25.7155 128.339 25.1217H131.695C131.716 25.982 131.574 26.8394 131.279 27.6472C131.01 28.3685 130.571 29.0162 130.001 29.5335C129.424 30.0635 128.737 30.4575 127.987 30.6843C127.124 30.9819 126.214 31.1236 125.302 31.0995H125.304Z" fill="white"/>
<path d="M141.896 31.0986C140.486 31.1411 139.086 30.8563 137.804 30.2667C136.71 29.7012 135.834 28.7914 135.31 27.6775C134.716 26.2843 134.433 24.7793 134.48 23.2657C134.48 21.4431 134.767 19.9735 135.31 18.8227C135.825 17.7102 136.705 16.8088 137.804 16.2646C139.078 15.6496 140.483 15.3534 141.896 15.4015C143.557 15.4015 144.932 15.6892 146.019 16.2646C147.108 16.8088 147.979 17.713 148.48 18.8227C149.056 19.9735 149.312 21.4446 149.312 23.2657C149.312 25.0868 149.056 26.5267 148.48 27.6775C147.969 28.79 147.103 29.6998 146.019 30.2667C144.727 30.8591 143.316 31.144 141.896 31.0986ZM141.896 28.2529C142.668 28.2869 143.434 28.0984 144.102 27.7101C144.696 27.3444 145.138 26.7761 145.35 26.1114C145.627 25.2554 145.756 24.3583 145.732 23.4584V23.0432C145.756 22.1432 145.627 21.2461 145.35 20.3901C145.131 19.7283 144.691 19.1643 144.102 18.7915C143.435 18.4032 142.668 18.2133 141.896 18.2487C141.125 18.2232 140.361 18.4117 139.689 18.7915C139.12 19.177 138.693 19.7382 138.475 20.3901C138.197 21.2461 138.067 22.1432 138.091 23.0432V23.4584C138.067 24.3583 138.196 25.2554 138.475 26.1114C138.684 26.7676 139.114 27.3317 139.689 27.7101C140.361 28.0913 141.123 28.2784 141.896 28.2529Z" fill="white"/>
<path d="M152.859 13.4537V10.1289H156.344V13.4537H152.859ZM152.859 30.748V15.7552H156.344V30.748H152.859Z" fill="white"/>
<path d="M160.629 30.7488V15.7561H163.506L163.794 17.7388H164.017C164.365 17.2796 164.773 16.8714 165.232 16.5242C165.712 16.1642 166.254 15.8935 166.831 15.7249C167.466 15.4981 168.137 15.389 168.812 15.406C169.671 15.3989 170.52 15.5733 171.306 15.9176C172.047 16.2691 172.653 16.853 173.032 17.58C173.48 18.3467 173.672 19.37 173.672 20.6171V30.7516H170.155V21.2577C170.161 20.8155 170.107 20.3748 169.995 19.9468C169.88 19.6222 169.695 19.3275 169.452 19.0837C169.195 18.8569 168.888 18.6925 168.557 18.6047C168.191 18.5097 167.816 18.4658 167.437 18.4771C166.841 18.453 166.251 18.6089 165.744 18.925C165.233 19.2226 164.813 19.6534 164.529 20.1721C164.227 20.7433 164.073 21.381 164.081 22.0258V30.753H160.629V30.7488Z" fill="white"/>
<path d="M69.3604 57.9201V38.3555H83.4262V41.5201H73.0692V46.7624H82.4044V49.927H73.0692V57.9187H69.3604V57.9201Z" fill="white"/>
<path d="M92.7929 58.2725C91.3828 58.315 89.9826 58.0301 88.7014 57.4405C87.6002 56.885 86.7215 55.9723 86.2085 54.8513C85.6147 53.4582 85.3313 51.9531 85.378 50.4395C85.378 48.617 85.6657 47.1473 86.2085 45.9965C86.7145 44.8784 87.5974 43.9728 88.7014 43.4385C89.9755 42.8234 91.3799 42.5272 92.7929 42.5754C94.4553 42.5754 95.83 42.8631 96.917 43.4385C98.0068 43.9827 98.8756 44.8854 99.3787 45.9965C99.9541 47.1473 100.209 48.6184 100.209 50.4395C100.209 52.2606 99.9541 53.7005 99.3787 54.8513C98.8671 55.9638 98.0012 56.8737 96.917 57.4405C95.6259 58.0329 94.2129 58.3178 92.7929 58.2725ZM92.7929 55.4267C93.5653 55.4607 94.3306 55.2722 94.9981 54.8839C95.5919 54.5183 96.0341 53.9499 96.2452 53.2853C96.523 52.4293 96.6534 51.5322 96.6293 50.6322V50.217C96.6534 49.3171 96.5244 48.42 96.2452 47.564C96.027 46.9021 95.5862 46.3381 94.9981 45.9654C94.3306 45.577 93.5639 45.3871 92.7929 45.4226C92.0219 45.3971 91.258 45.5855 90.5863 45.9654C90.0166 46.3508 89.59 46.9121 89.3717 47.564C89.094 48.42 88.9636 49.3171 88.9877 50.217V50.6322C88.9636 51.5322 89.0925 52.4293 89.3717 53.2853C89.5815 53.9414 90.0109 54.5055 90.5863 54.8839C91.258 55.2651 92.0205 55.4522 92.7929 55.4267Z" fill="white"/>
<path d="M108.521 58.2709C107.082 58.2709 105.899 57.8868 105.005 57.0875C104.109 56.2882 103.63 54.9461 103.63 53.0597V42.9252H107.115V52.4192C107.101 52.8642 107.166 53.3078 107.306 53.7301C107.41 54.0603 107.597 54.3579 107.85 54.5932C108.09 54.827 108.389 54.9928 108.713 55.0722C109.09 55.1657 109.477 55.2082 109.864 55.1997C110.459 55.2153 111.048 55.0594 111.559 54.7519C112.068 54.4486 112.479 54.005 112.743 53.4736C113.044 52.9138 113.199 52.2874 113.19 51.651V42.9238H116.675V57.9165H113.798L113.511 55.9353H113.319C112.964 56.386 112.556 56.7941 112.105 57.1498C111.614 57.5027 111.076 57.7819 110.506 57.9803C109.864 58.1773 109.195 58.2737 108.525 58.268L108.521 58.2709Z" fill="white"/>
<path d="M120.957 57.9193V42.9266H123.867L124.154 44.9079H124.346C124.701 44.4572 125.109 44.049 125.56 43.6933C126.041 43.3334 126.582 43.0627 127.159 42.894C127.794 42.6673 128.465 42.5581 129.14 42.5737C130.007 42.5709 130.868 42.7438 131.666 43.0853C132.407 43.4368 133.012 44.0207 133.392 44.7477C133.807 45.5144 134 46.5377 134 47.7848V57.9193H130.515V48.4254C130.529 47.9804 130.464 47.5368 130.323 47.1145C130.209 46.7899 130.023 46.4952 129.781 46.2514C129.531 46.0317 129.236 45.8673 128.918 45.7724C128.542 45.6788 128.154 45.6363 127.767 45.6448C127.17 45.6264 126.582 45.7823 126.072 46.0927C125.569 46.3988 125.151 46.8282 124.857 47.3398C124.567 47.9138 124.424 48.5515 124.442 49.1935V57.9208H120.957V57.9193Z" fill="white"/>
<path d="M143.399 58.2713C142.286 58.294 141.191 58.0063 140.234 57.4408C139.285 56.8343 138.556 55.9372 138.156 54.8827C137.626 53.4514 137.377 51.9321 137.421 50.4072C137.421 48.5846 137.676 47.115 138.188 45.9642C138.577 44.9141 139.295 44.017 140.234 43.4076C141.124 42.8506 142.157 42.5615 143.206 42.5757C143.831 42.5799 144.453 42.655 145.061 42.7996C145.61 42.9427 146.128 43.1794 146.595 43.5025C147.02 43.8214 147.388 44.2111 147.682 44.6533H147.874V37.3008H151.358V57.9198H148.481L148.193 55.9386H147.969C147.503 56.6897 146.84 57.2977 146.052 57.6973C145.221 58.0871 144.314 58.2841 143.399 58.2727V58.2713ZM144.486 55.2668C145.167 55.3122 145.845 55.1194 146.403 54.7226C146.935 54.3343 147.327 53.7844 147.521 53.1566C147.771 52.3488 147.89 51.5069 147.874 50.6637V50.2796C147.881 49.6135 147.816 48.9489 147.682 48.2984C147.56 47.7641 147.343 47.2553 147.042 46.7961C146.786 46.4007 146.42 46.0889 145.988 45.9004C145.52 45.6723 145.004 45.5617 144.486 45.5801C143.767 45.5376 143.053 45.7162 142.439 46.0918C141.902 46.4532 141.515 46.9988 141.352 47.6266C141.111 48.4784 141.004 49.3627 141.032 50.2485V50.6637C141.008 51.5381 141.116 52.4111 141.352 53.253C141.532 53.8723 141.915 54.4122 142.439 54.7878C143.063 55.1364 143.772 55.3022 144.486 55.2668Z" fill="white"/>
<path d="M159.478 58.2714C158.995 58.2587 158.513 58.2048 158.04 58.1113C157.487 58.0163 156.956 57.8208 156.473 57.5359C155.944 57.2369 155.512 56.7933 155.227 56.2576C154.88 55.505 154.717 54.6816 154.749 53.8525C154.783 53.0249 155.011 52.2157 155.418 51.4943C155.903 50.7999 156.565 50.2472 157.336 49.8957C158.281 49.4748 159.283 49.1942 160.309 49.0652C161.56 48.9051 162.82 48.8299 164.082 48.8413V47.5941C164.089 47.2016 164.023 46.8118 163.89 46.4433C163.747 46.0905 163.488 45.7971 163.155 45.6129C162.663 45.3918 162.126 45.2926 161.587 45.3252C161.023 45.3082 160.459 45.3946 159.926 45.5803C159.59 45.7036 159.3 45.9275 159.094 46.2194C158.94 46.4448 158.862 46.714 158.87 46.9861V47.3702H155.514C155.488 47.2767 155.478 47.1789 155.482 47.0825V46.731C155.471 45.9289 155.743 45.148 156.25 44.5259C156.808 43.8498 157.552 43.3496 158.391 43.0874C160.523 42.3844 162.827 42.4071 164.945 43.1512C165.754 43.4842 166.444 44.0525 166.927 44.781C167.365 45.5604 167.586 46.4433 167.566 47.339V54.4038C167.548 54.5527 167.568 54.7043 167.623 54.8446C167.68 54.9849 167.769 55.1082 167.885 55.2032C168.087 55.3335 168.318 55.4101 168.557 55.4271H169.484V57.825L168.654 58.0801C168.214 58.1921 167.763 58.2459 167.31 58.2403C166.861 58.2417 166.416 58.1552 165.999 57.9837C165.619 57.8448 165.279 57.6138 165.008 57.312C164.749 56.9903 164.554 56.6204 164.433 56.225H164.273C163.937 56.6246 163.55 56.9789 163.122 57.2794C162.639 57.5997 162.112 57.8477 161.556 58.0149C160.877 58.1878 160.179 58.2743 159.478 58.27V58.2714ZM160.533 55.4257C161.056 55.4299 161.575 55.3435 162.068 55.1706C162.48 55.009 162.851 54.7582 163.155 54.435C163.471 54.1332 163.712 53.7604 163.858 53.348C164.015 52.8846 164.09 52.3985 164.082 51.9095V51.2378C163.119 51.2321 162.157 51.2973 161.205 51.4291C160.455 51.5099 159.732 51.7622 159.094 52.1646C158.835 52.3248 158.625 52.5515 158.484 52.8222C158.343 53.0929 158.278 53.3948 158.295 53.6995C158.292 54.0169 158.38 54.3273 158.552 54.5952C158.726 54.8701 158.982 55.0827 159.286 55.2032C159.684 55.3562 160.108 55.4327 160.533 55.4271V55.4257Z" fill="white"/>
<path d="M176.005 58.2723C175.237 58.3191 174.475 58.1178 173.831 57.6969C173.307 57.3624 172.903 56.8707 172.681 56.291C172.464 55.7199 172.355 55.1119 172.36 54.5011V45.7739H170.57V42.9281H172.457L173.063 38.7402H175.845V42.9281H178.434V45.7739H175.845V54.1496C175.825 54.3197 175.844 54.4912 175.899 54.6541C175.954 54.8157 176.045 54.9631 176.164 55.0864C176.283 55.2083 176.429 55.3032 176.589 55.3627C176.749 55.4223 176.921 55.4449 177.092 55.4294H178.434V57.8273L177.732 58.0186L176.868 58.2099L176.005 58.2737V58.2723Z" fill="white"/>
<path d="M181.568 40.6256V37.3008H185.052V40.6256H181.568ZM181.568 57.9198V42.9271H185.052V57.9198H181.568Z" fill="white"/>
<path d="M196.017 58.2725C194.597 58.315 193.187 58.0301 191.893 57.4405C190.807 56.8666 189.933 55.9581 189.4 54.8513C188.857 53.7005 188.601 52.1983 188.601 50.4395C188.601 48.6807 188.857 47.1473 189.4 45.9965C189.926 44.8911 190.803 43.9926 191.893 43.4385C193.178 42.8234 194.593 42.5272 196.017 42.5754C197.431 42.5272 198.836 42.8234 200.11 43.4385C201.208 43.9813 202.088 44.884 202.603 45.9965C203.147 47.1473 203.402 48.6184 203.402 50.4395C203.402 52.2606 203.147 53.7005 202.603 54.8513C202.08 55.9652 201.202 56.8751 200.11 57.4405C198.827 58.0301 197.427 58.3136 196.017 58.2725ZM196.017 55.4267C196.789 55.4522 197.552 55.2637 198.223 54.8839C198.799 54.5055 199.228 53.9414 199.438 53.2853C199.716 52.4293 199.846 51.5322 199.822 50.6322V50.217C199.846 49.3171 199.716 48.42 199.438 47.564C199.22 46.9121 198.792 46.3508 198.223 45.9654C197.536 45.6096 196.775 45.424 196.001 45.424C195.227 45.424 194.466 45.6096 193.779 45.9654C193.211 46.3508 192.783 46.9121 192.565 47.564C192.287 48.42 192.156 49.3171 192.18 50.217V50.6322C192.156 51.5322 192.287 52.4293 192.565 53.2853C192.774 53.9414 193.204 54.5055 193.779 54.8839C194.461 55.2694 195.236 55.4564 196.017 55.4267Z" fill="white"/>
<path d="M206.95 57.9208V42.9281H209.858L210.146 44.9094H210.339C210.703 44.4658 211.11 44.0591 211.553 43.6948C212.038 43.3405 212.578 43.0698 213.152 42.8955C213.788 42.6702 214.459 42.5625 215.133 42.5752C216.002 42.5681 216.862 42.7425 217.659 43.0868C218.4 43.4383 219.006 44.0222 219.385 44.7492C219.845 45.6931 220.064 46.7362 220.025 47.7863V57.9208H216.508V48.4269C216.522 47.9819 216.457 47.5383 216.317 47.116C216.213 46.7858 216.026 46.4882 215.774 46.2529C215.533 46.0191 215.235 45.8533 214.909 45.7739C214.534 45.6804 214.147 45.6378 213.758 45.6463C213.163 45.6307 212.575 45.7866 212.065 46.0942C211.563 46.3932 211.154 46.824 210.882 47.3413C210.567 47.9068 210.411 48.5474 210.435 49.195V57.9223H206.95V57.9208Z" fill="white"/>
</g>
<defs>
<clipPath id="clip0_281_385">
<rect width="219.572" height="67.8874" fill="white" transform="translate(0.458008 0.712891)"/>
</clipPath>
</defs>
</svg>
