<svg width="56" height="58" viewBox="0 0 56 58" fill="none" xmlns="http://www.w3.org/2000/svg">
<path fill-rule="evenodd" clip-rule="evenodd" d="M28.0782 55.9581C13.4593 55.9581 1.5 43.7488 1.5 28.694C1.63182 13.7736 13.4593 1.56773 28.2101 1.70227C42.8288 1.84018 54.6564 13.9116 54.6564 29.101C54.5246 43.8867 42.697 55.9581 28.0782 55.9581Z" stroke="white" stroke-width="2.63585"/>
<path d="M37.7215 10.2031C37.1007 10.2031 35.2041 10.2031 32.9146 12.3729C30.7824 14.3938 29.4695 18.2234 29.2861 19.0348C29.2151 19.3474 28.6801 21.733 28.0442 24.5726L20.3271 23.5305L19.8296 25.7896L27.5393 26.8317C27.285 27.9816 27.0268 29.1354 26.7874 30.1999L19.1115 29.1615L18.6139 31.4242L26.2824 32.459C25.9458 33.9774 25.7175 34.9971 25.7175 35.0046C25.7175 35.0119 25.6241 35.3879 25.4782 35.976H25.4969C25.0441 37.9893 24.7112 39.4669 24.644 39.7422C24.4045 40.7173 24.21 41.3724 23.9931 42.139L23.8921 42.5075C23.5888 43.5214 23.1957 44.5066 22.7176 45.4514C22.1152 46.6498 20.5254 47.208 20.5254 47.208C20.5254 47.208 19.6837 47.5652 18.8907 47.3791C18.0977 47.1931 18.0454 46.981 17.9967 46.9251C18.7448 47.0702 19.9307 46.4674 20.6564 45.4216C21.2885 44.5134 21.5092 43.2294 21.599 42.2656C20.8658 42.541 20.2411 42.8164 18.9804 43.0695C17.7871 43.3189 16.7622 43.5644 16.2422 43.9217C15.7223 44.2791 15.5241 44.7852 15.3931 45.1759C14.8283 47.167 18.2997 48.6334 19.7623 48.6409C20.3795 48.6409 22.2799 48.6409 24.5655 46.4748C26.7014 44.4502 28.0106 40.6243 28.1976 39.8092C28.2463 39.5822 28.5456 38.2499 28.9496 36.4412H28.9571C29.159 35.5442 29.4321 34.316 29.7426 32.9242L37.3101 33.9439L37.8076 31.6848L30.2476 30.6651C30.4908 29.5634 30.7488 28.4209 30.9957 27.3006L38.5557 28.3203L39.0532 26.0576L31.5007 25.0379C32.1853 21.9712 32.7463 19.4739 32.8361 19.1018C33.0756 18.1304 33.2701 17.4753 33.4871 16.705L33.5918 16.3403C33.8948 15.3268 34.2866 14.3416 34.7626 13.3963C35.3686 12.1981 36.9584 11.6361 36.9584 11.6361C36.9584 11.6361 37.7964 11.2787 38.5894 11.4686C39.3825 11.6583 39.4386 11.8631 39.4872 11.9189C38.7353 11.7775 37.5532 12.3803 36.8276 13.4224C36.1917 14.3343 35.9709 15.6183 35.8811 16.5785C36.618 16.3068 37.2427 16.0277 38.5034 15.7746C39.693 15.5252 40.7178 15.2833 41.2416 14.926C41.7653 14.5686 41.956 14.0588 42.0869 13.6681C42.6518 11.677 39.1842 10.2143 37.7215 10.2031Z" fill="white"/>
</svg>
