<svg width="190" height="327" viewBox="0 0 190 327" fill="none" xmlns="http://www.w3.org/2000/svg">
<g clip-path="url(#clip0_127_16)">
<path d="M99.39 76.7C120.07 76.7 136.83 59.96 136.83 39.31C136.83 18.66 120.07 1.91 99.39 1.91C78.71 1.91 61.95 18.65 61.95 39.3C61.95 59.95 78.71 76.69 99.39 76.69V76.7Z" fill="#12DA00"/>
<path d="M117.97 24.17L100.87 14.38C99.96 13.86 98.82 13.86 97.91 14.38L80.81 24.17C79.9 24.69 79.33 25.67 79.33 26.72V46.3C79.33 47.34 79.9 48.32 80.81 48.85L93.75 56.27V52.25L82.84 46.01V27.04L99.39 17.56L115.94 27.04V46.01L105.03 52.25V56.27L117.97 48.85C118.88 48.33 119.45 47.35 119.45 46.3V26.7C119.45 25.66 118.88 24.68 117.97 24.15V24.17Z" fill="white"/>
<path d="M110.02 32.43V28.41L101.15 33.5V23.52H97.64V33.5L88.77 28.41V32.43L97.64 37.52V43.78L88.77 38.69V42.71L97.64 47.8V67.79H101.15V47.8L110.02 42.71V38.69L101.15 43.78V37.52L110.02 32.43Z" fill="white"/>
<path d="M133.61 73.46C135.46 71.61 137.16 69.63 138.66 67.52L135.78 65.45C134.39 67.39 132.8 69.23 131.1 70.95C122.63 79.41 111.37 84.07 99.39 84.07C87.41 84.07 76.15 79.41 67.68 70.95C50.19 53.48 50.19 25.07 67.68 7.60001C69.4 5.86001 71.3 4.27001 73.26 2.86001L71.19 -0.00999451C69.06 1.51001 67.03 3.23001 65.18 5.10001C46.32 23.94 46.32 54.59 65.18 73.45C73.89 82.15 85.37 87.13 97.63 87.57V94.53H75.94V98.05H122.86V94.53H101.17V87.57C113.43 87.13 124.89 82.18 133.62 73.45L133.61 73.46Z" fill="white"/>
<path d="M1.89 146.44C1.89 133.95 11.65 123.51 27.85 123.51C38.09 123.51 46.67 126.97 51.68 132.43L43.82 143.37C39.77 139.45 35.72 137.19 29.05 137.19C21.77 137.19 17.38 140.89 17.38 146.35C17.38 163.58 55.15 158.12 55.15 185.83C55.15 199.86 42.89 209.37 27.27 209.37C16.55 209.37 4.05 204.74 0 196.27L8.34 186.29C13.22 192.6 21.08 195.69 27.51 195.69C34.41 195.69 39.66 192.23 39.66 185.94C39.64 169.49 1.89 173.54 1.89 146.44Z" fill="white"/>
<path d="M136.46 146.44C136.46 133.95 146.22 123.51 162.42 123.51C172.66 123.51 181.24 126.97 186.25 132.43L178.39 143.37C174.34 139.45 170.29 137.19 163.62 137.19C156.34 137.19 151.95 140.89 151.95 146.35C151.95 163.58 189.72 158.12 189.72 185.83C189.72 199.86 177.46 209.37 161.84 209.37C151.12 209.37 138.62 204.74 134.57 196.27L142.91 186.29C147.79 192.6 155.65 195.69 162.08 195.69C168.98 195.69 174.23 192.23 174.23 185.94C174.23 169.49 136.46 173.54 136.46 146.44Z" fill="white"/>
<path d="M70.07 125.21C74.71 124.97 85.8 124.62 94.14 124.62C114.03 124.62 121.54 133.67 121.54 145.18C121.54 154.71 116.77 160.75 109.63 164.08V164.32C117.84 166.34 124.29 172.65 124.29 183.68C124.29 200.8 110.96 208.63 93.32 208.63C85.7 208.63 74.98 208.39 70.1 208.04V125.18H70.08V125.2L70.07 125.21ZM84.73 138.65V159.68H94.62C101.42 159.68 107.01 156.22 107.01 148.61C107.01 141.82 101.76 138.26 93.9 138.26C90.57 138.26 87.34 138.37 84.73 138.61V138.65ZM84.73 172.41V194.4C86.76 194.64 90.22 194.99 94.38 194.99C104.27 194.99 109.63 190.84 109.63 182.98C109.63 175.95 104.27 172.39 95.1 172.39H84.73V172.41Z" fill="white"/>
<path d="M1.92 229.15H26.31V236.06H9.32V246.53H24.5V253.45H9.32V264.32H26.9V271.24H1.92V229.15Z" fill="white"/>
<path d="M49.75 229.02H56.26L74.08 271.24H66.2L61.8 260.47H43.79L39.39 271.24H31.92L49.74 229.02H49.76H49.75ZM46.61 253.56H58.96L52.82 238.59L46.61 253.56Z" fill="white"/>
<path d="M79.65 271.24V229.15C82 229.15 91.28 229.02 92.48 229.02C103.98 229.02 107.77 234.74 107.77 242.01C107.77 249.28 103.13 252.84 99.65 254.04L112.83 271.25H103.86L92.23 255.5H87.05V271.25H79.64H79.66L79.65 271.24ZM87.06 236.06V248.57H91.87C96.14 248.57 99.93 246.39 99.93 242.07C99.93 238.76 98.12 235.94 92.11 235.94C90.72 235.94 89.04 236.01 87.06 236.07V236.06Z" fill="white"/>
<path d="M112.83 229.15H147.57V236.06H133.89V271.24H126.49V236.06H112.81V229.15H112.83Z" fill="white"/>
<path d="M181.27 253.25H161.99V271.24H154.59V229.15H161.99V246.35H181.27V229.15H188.61V271.24H181.27V253.25Z" fill="white"/>
</g>
<defs>
<clipPath id="clip0_127_16">
<rect width="189.72" height="271.24" fill="white"/>
</clipPath>
</defs>
</svg>
