<svg width="173" height="28" viewBox="0 0 173 28" fill="none" xmlns="http://www.w3.org/2000/svg">
<path fill-rule="evenodd" clip-rule="evenodd" d="M115.828 4.95734V19.8216H118.773V4.95734H115.828ZM75.2484 16.8201V15.8196V10.6743H77.5466V8.74482H75.2484V5.02874H72.3038V8.74482H70.6517V10.6743H72.3038V16.177C72.3038 16.8201 72.3038 17.3204 72.3754 17.8206C72.5191 19.3928 73.3092 20.1073 75.464 20.1073C76.1104 20.1073 76.7565 20.0361 77.4029 19.9646V18.035C75.7511 18.1779 75.3203 17.8921 75.2484 16.8201ZM45.8011 14.2475C47.9559 13.9617 49.7515 12.4609 49.7515 9.8168C49.7515 7.1012 48.0278 5.60048 45.873 5.31464C45.0832 5.24317 44.5802 5.24314 43.7185 5.24314H38.6191V19.8216H41.4919V14.319H43.6467H43.6473C44.5087 14.319 45.0832 14.319 45.8011 14.2475ZM44.9395 7.67291C45.9449 7.81581 46.6631 8.45898 46.6631 9.8168C46.6631 11.1746 45.9449 11.8177 44.9395 12.0321C44.6521 12.1036 44.1494 12.1036 43.6467 12.1036H41.5637V7.60141H43.6467C44.1494 7.60141 44.6521 7.60144 44.9395 7.67291ZM57.7239 10.7458V8.38752C57.4365 8.31605 57.2209 8.31605 56.8619 8.31605C56.2155 8.31605 55.4973 8.60192 54.9227 9.10216L54.0607 10.6743V8.60192H51.1161V19.8216H54.0607V14.6763C54.0607 11.6748 55.282 10.6029 57.7239 10.7458ZM69.9335 14.176C69.9335 17.6062 67.8508 20.1073 64.1158 20.1073C60.3811 20.1073 58.2985 17.6062 58.2985 14.176C58.2985 10.7458 60.3811 8.24458 64.1158 8.24458C67.8508 8.31605 69.9335 10.8172 69.9335 14.176ZM66.917 14.176C66.917 11.7463 65.8398 10.317 64.1158 10.317C62.3922 10.317 61.3149 11.7463 61.3149 14.176C61.3149 16.6058 62.3922 18.035 64.1158 18.035C65.8398 18.035 66.917 16.6058 66.917 14.176ZM90.0436 14.176C90.0436 17.6062 87.961 20.1073 84.2263 20.1073C80.4912 20.1073 78.4086 17.6062 78.4086 14.176C78.4086 10.7458 80.4912 8.24458 84.2263 8.24458C87.8891 8.31605 90.0436 10.8172 90.0436 14.176ZM86.9553 14.176C86.9553 11.7463 85.8781 10.317 84.1544 10.317C82.4304 10.317 81.3532 11.7463 81.3532 14.176C81.3532 16.6058 82.4304 18.035 84.1544 18.035C85.9499 18.035 86.9553 16.6058 86.9553 14.176ZM98.9496 12.6753H101.823C101.607 10.1741 99.7397 8.31605 96.7233 8.31605C93.6349 8.31605 91.1212 10.4599 91.1212 14.319C91.1212 18.1779 93.4194 20.1073 96.5077 20.1073C99.3089 20.1073 101.392 18.7497 101.895 15.9626H98.9496C98.6625 17.3918 97.8005 18.1065 96.6514 18.1065C95.2149 18.1065 94.1376 16.9631 94.1376 14.176C94.1376 11.6034 95.143 10.3885 96.6514 10.3885C97.8005 10.3885 98.6625 11.0317 98.9496 12.6753ZM114.535 14.176C114.535 17.6062 112.452 20.1073 108.718 20.1073C104.983 20.1073 102.9 17.6062 102.9 14.176C102.9 10.7458 104.983 8.24458 108.718 8.24458C112.452 8.31605 114.535 10.8172 114.535 14.176ZM111.518 14.176C111.518 11.7463 110.441 10.317 108.718 10.317C106.994 10.317 105.916 11.7463 105.916 14.176C105.916 16.6058 106.994 18.035 108.718 18.035C110.441 18.035 111.518 16.6058 111.518 14.176ZM136.872 19.8216H126.314V4.95734H129.259V17.3919H136.872V19.8216ZM144.198 19.3928L144.772 18.178L144.916 19.8216H147.789C147.645 18.5353 147.573 17.8206 147.573 16.9631V13.3184C147.573 12.7467 147.573 12.1036 147.501 11.6034C147.286 9.67387 146.137 8.31605 142.976 8.31605C140.319 8.31605 138.236 9.7453 138.165 12.2465H141.038C141.109 10.9602 141.756 10.317 142.905 10.317C144.054 10.317 144.557 10.8887 144.629 11.6748C144.7 12.1036 144.7 12.3894 144.7 12.7467V12.9611H143.982C139.96 12.9611 137.806 14.319 137.806 16.8202C137.806 18.9641 139.457 20.1073 141.397 20.1073C142.474 20.1073 143.408 19.8931 144.198 19.3928ZM144.772 14.7477V15.6768C144.772 17.249 143.767 18.035 142.618 18.035C141.54 18.035 140.894 17.6063 140.894 16.6058C140.894 15.105 142.474 14.6048 144.772 14.7477ZM161.579 13.9617C161.579 18.035 159.065 20.1076 156.192 20.1076C155.258 20.1076 154.109 19.8931 153.535 19.4643L152.816 18.3209V19.8216H149.872V4.95734H152.816V10.3171L153.678 9.10219C154.325 8.60195 155.474 8.31605 156.623 8.31605C159.711 8.31605 161.579 10.6743 161.579 13.9617ZM158.49 14.176C158.49 11.8892 157.413 10.3171 155.618 10.3171C154.037 10.3171 152.673 11.3175 152.673 14.0331V14.5334C152.673 17.106 154.109 17.9636 155.474 17.9636C157.269 18.035 158.49 16.7487 158.49 14.176ZM168.905 11.8177H171.849C171.562 9.81677 170.054 8.24458 167.396 8.24458C164.739 8.24458 162.943 9.5309 162.943 11.6748C162.943 13.6043 164.38 14.5333 166.462 15.0336C168.402 15.5338 169.12 16.0341 169.12 16.8916C169.12 17.6777 168.402 18.1065 167.468 18.1065C166.462 18.1065 165.601 17.5348 165.385 16.3199H162.441C162.728 18.8211 164.667 20.0361 167.396 20.0361C169.982 20.0361 172.065 18.964 172.065 16.6772C172.065 14.6048 170.7 13.6758 168.402 13.1041C166.534 12.6753 165.816 12.2465 165.816 11.389C165.816 10.6743 166.319 10.1741 167.181 10.1741C168.114 10.1741 168.689 10.8172 168.905 11.8177Z" fill="white"/>
<path fill-rule="evenodd" clip-rule="evenodd" d="M1.70277 3.45659L7.16124 0.383679C7.30489 0.312211 7.44854 0.312211 7.5922 0.383679L20.3765 7.67291C20.5202 7.81584 20.5202 8.03021 20.3765 8.10168L14.918 11.1746C14.7744 11.2461 14.6308 11.2461 14.4871 11.1746L1.70277 3.88539C1.55912 3.74246 1.55912 3.52805 1.70277 3.45659ZM16.2108 3.45659L21.6694 0.383679C21.8131 0.312211 22.0284 0.312211 22.1002 0.383679L27.6305 3.52809C27.7742 3.67099 27.7742 3.88536 27.6305 3.95683L22.1721 7.02973C22.0284 7.1012 21.8847 7.1012 21.7413 7.02973L16.2108 3.88539C16.0672 3.74246 16.0672 3.52805 16.2108 3.45659ZM15.2772 12.7468V19.0355C15.2772 19.1785 15.4926 19.3214 15.6363 19.25L21.1665 16.1056C21.2384 16.0342 21.3102 15.9627 21.3102 15.8912V9.53097C21.3102 9.38803 21.0947 9.24513 20.9511 9.3166L15.5644 12.3895C15.4208 12.4609 15.2772 12.6039 15.2772 12.7468ZM28.2769 5.17177L22.8185 8.24468C22.6029 8.31615 22.5311 8.45908 22.5311 8.53055V16.32C22.5311 16.5344 22.4592 16.6773 22.3158 16.7488L15.4926 20.6078C15.349 20.7508 15.2772 20.8938 15.2772 21.0365V27.3252C15.2772 27.5397 15.4926 27.6112 15.6363 27.5397L28.4206 20.3933C28.5643 20.2503 28.6362 20.1076 28.6362 19.9646V5.38618C28.6362 5.17177 28.4206 5.10031 28.2769 5.17177ZM14.0562 12.7467V19.107C14.0562 19.2499 13.9125 19.3214 13.7689 19.2499L7.08944 15.4623C6.94579 15.3909 6.73031 15.4624 6.73031 15.6767V23.1805C6.73031 23.3232 6.51486 23.4662 6.37121 23.3947L0.912745 20.3218C0.769092 20.2503 0.697266 20.1073 0.697266 19.8931V5.24311C0.697266 5.10021 0.912745 4.95727 1.05637 5.02874L13.8407 12.318C13.9844 12.3894 14.0562 12.6038 14.0562 12.7467ZM13.7689 20.6793L8.3104 17.5348C8.16678 17.4634 7.9513 17.6063 7.9513 17.7492V24.0379C7.9513 24.2524 8.02312 24.3954 8.16678 24.4669L13.6252 27.6112C13.7689 27.6824 13.9843 27.5397 13.9843 27.3967V21.108C13.9843 20.8935 13.9125 20.7508 13.7689 20.6793Z" fill="white"/>
</svg>
