<svg width="187" height="65" viewBox="0 0 187 65" fill="none" xmlns="http://www.w3.org/2000/svg">
<g clip-path="url(#clip0_281_381)">
<path fill-rule="evenodd" clip-rule="evenodd" d="M182.864 6.45703V26.4135H186.817V6.45703H182.864ZM173.22 26.8946C178.236 26.8946 181.03 23.5377 181.03 18.9331C181.03 14.3286 178.236 10.9717 173.22 10.9717C168.204 10.9717 165.409 14.3286 165.409 18.9331C165.409 23.5377 168.204 26.8946 173.22 26.8946ZM173.22 13.7471C175.536 13.7471 176.982 15.6661 176.982 18.9279C176.982 22.1896 175.536 24.1086 173.22 24.1086C170.903 24.1086 169.458 22.1896 169.458 18.9279C169.458 15.6661 170.903 13.7471 173.22 13.7471ZM94.0426 12.9806C94.0426 16.5331 91.6303 18.5472 88.7397 18.9279C87.7726 19.023 87.0022 19.023 85.8491 19.023H82.9533V26.4135H79V6.83766H85.8491C87.0075 6.83766 87.6823 6.83766 88.7397 6.93282C91.7312 7.41389 94.0426 9.42804 94.0426 12.9753V12.9806ZM89.8981 12.9806C89.8981 11.1567 88.931 10.295 87.5814 10.0994C87.1935 10.0043 86.5186 10.0043 85.8438 10.0043H83.0489V16.0467H85.8438C86.5186 16.0467 87.1935 16.0467 87.5814 15.9516C88.931 15.6661 89.8981 14.7991 89.8981 12.9753V12.9806ZM104.749 14.3233V11.1567C104.462 11.0616 104.17 10.9664 103.591 11.0616C102.725 11.0616 101.758 11.4475 100.987 12.1189L99.8291 14.2282V11.4475H95.8758V26.514H99.8291V19.6045C99.8291 15.5762 101.471 14.133 104.749 14.3286V14.3233ZM121.147 18.9279C121.147 23.5324 118.352 26.8893 113.336 26.8893C108.32 26.8893 105.525 23.5324 105.525 18.9279C105.525 14.3233 108.32 10.9664 113.336 10.9664C118.352 10.9664 121.147 14.3233 121.147 18.9279ZM117.098 18.9279C117.098 15.6661 115.653 13.7471 113.336 13.7471C111.019 13.7471 109.574 15.6661 109.574 18.9279C109.574 22.1896 111.019 24.1086 113.336 24.1086C115.653 24.1086 117.098 22.0945 117.098 18.9279ZM128.283 22.3799V14.1277H131.37V11.5373H128.283V6.5469H124.33V11.5373H122.114V14.1277H124.33V21.5182C124.33 22.3799 124.33 23.0513 124.425 23.7227C124.617 25.832 125.679 26.7942 128.57 26.7942C129.436 26.7942 130.307 26.699 131.174 26.6038V24.0135C128.953 24.2038 128.379 23.8231 128.278 22.3799H128.283ZM148.15 18.9279C148.15 23.5324 145.355 26.8893 140.339 26.8893C135.323 26.8893 132.529 23.5324 132.529 18.9279C132.529 14.3233 135.323 10.9664 140.339 10.9664C145.355 10.9664 148.15 14.3233 148.15 18.9279ZM144.101 18.9279C144.101 15.6661 142.656 13.7471 140.339 13.7471C138.023 13.7471 136.577 15.6661 136.577 18.9279C136.577 22.1896 138.023 24.1086 140.339 24.1086C142.656 24.1086 144.101 22.0945 144.101 18.9279ZM160.207 16.8186H164.064C163.777 13.4616 161.168 10.9664 157.215 10.9664C153.262 10.9664 149.691 13.8475 149.691 19.0283C149.691 24.2091 152.778 26.7994 156.923 26.7994C160.685 26.7994 163.48 24.9756 164.155 21.2328H160.201C159.814 23.1518 158.66 24.1139 157.114 24.1139C155.185 24.1139 153.74 22.5808 153.74 18.838C153.74 15.3859 155.09 13.7524 157.114 13.7524C158.655 13.7524 159.814 14.6141 160.201 16.8238L160.207 16.8186ZM93.3731 52.6081H79.1966V32.6516H83.1499V49.3463H93.3731V52.6081ZM103.208 52.0319L103.979 50.3983L104.17 52.6081H108.028C107.837 50.8794 107.741 49.9225 107.741 48.7701V43.8748C107.741 43.1083 107.741 42.2413 107.645 41.5699C107.358 38.9795 105.812 37.1557 101.572 37.1557C98.0012 37.1557 95.2063 39.0747 95.1106 42.4316H98.9683C99.0639 40.7029 99.9353 39.8412 101.476 39.8412C103.017 39.8412 103.692 40.6077 103.793 41.665C103.889 42.2413 103.889 42.6219 103.889 43.103V43.3884H102.922C97.523 43.3884 94.6271 45.2123 94.6271 48.5692C94.6271 51.4503 96.8428 52.9834 99.4465 52.9834C100.892 52.9834 102.146 52.6979 103.208 52.0213V52.0319ZM103.883 45.7938V47.0414C103.883 49.1507 102.534 50.208 100.987 50.208C99.5421 50.208 98.6707 49.6318 98.6707 48.289C98.6707 46.2749 100.791 45.6035 103.878 45.7938H103.883ZM126.45 44.7365C126.45 50.208 123.076 52.9887 119.218 52.9887C117.964 52.9887 116.423 52.7032 115.653 52.127L114.686 50.5939V52.6081H110.732V32.6516H114.686V39.8465L115.844 38.213C116.71 37.5416 118.256 37.1557 119.797 37.1557C123.947 37.0605 126.45 40.3223 126.45 44.7365ZM122.401 45.022C122.401 41.9505 120.956 39.8412 118.543 39.8412C116.423 39.8412 114.59 41.184 114.59 44.8317V45.503C114.59 48.9551 116.519 50.1076 118.352 50.1076C120.764 50.2027 122.401 48.474 122.401 45.022ZM136.386 41.8554H140.339C139.952 39.0747 137.927 37.0552 134.362 37.0552C130.796 37.0552 128.384 38.7839 128.384 41.6598C128.384 44.2501 130.313 45.4977 133.108 46.1691C135.711 46.8405 136.678 47.5119 136.678 48.6644C136.678 49.7217 135.711 50.2979 134.463 50.2979C133.113 50.2979 131.955 49.5313 131.668 47.8978H127.714C128.102 51.2547 130.706 52.8883 134.367 52.8883C137.837 52.8883 140.637 51.4503 140.637 48.3789C140.637 45.5982 138.804 44.3506 135.717 43.584C133.209 43.0078 132.247 42.4316 132.247 41.2791C132.247 40.317 132.922 39.6456 134.08 39.6456C135.334 39.6456 136.105 40.5073 136.397 41.8554H136.386Z" fill="white"/>
<path fill-rule="evenodd" clip-rule="evenodd" d="M37.039 8.28043L49.6746 1.08024C50.0624 0.889922 50.445 0.889922 50.7373 1.08024L63.5641 8.3703C63.952 8.56062 63.952 9.13684 63.5641 9.32716L50.9285 16.5221C50.6416 16.7124 50.1581 16.7124 49.8658 16.5221L37.039 9.232C36.6511 9.04169 36.6511 8.46546 37.039 8.27515V8.28043ZM3.28209 8.37559L15.9177 1.17539C16.3056 0.985078 16.6881 0.985078 16.9804 1.17539L46.683 18.0604C47.0709 18.2508 47.0709 18.827 46.683 19.0226L34.0475 26.2175C33.7605 26.4078 33.277 26.4078 32.9847 26.2175L3.2874 9.33245C2.89952 9.14213 2.89952 8.5659 3.2874 8.3703L3.28209 8.37559ZM34.8179 29.8705V44.3607C34.8179 44.7466 35.3014 45.0321 35.5884 44.8418L48.4152 37.5517C48.6065 37.4566 48.7022 37.2663 48.7022 37.0707V22.1998C48.7022 21.8138 48.2186 21.5284 47.9317 21.7187L35.3918 28.9136C35.0039 29.1039 34.8126 29.4898 34.8126 29.8757L34.8179 29.8705ZM64.8128 12.1184L52.1772 19.3133C51.8903 19.5036 51.6937 19.8896 51.7893 20.175V38.3077C51.7893 38.6936 51.5024 39.0742 51.2102 39.2698L35.3918 48.2886C35.0039 48.4789 34.8126 48.8648 34.8126 49.2507V63.741C34.8126 64.1269 35.2005 64.4124 35.5831 64.2221L64.9988 47.4322C65.3867 47.2419 65.578 46.8559 65.578 46.47V12.5942C65.578 12.2083 65.1901 11.9228 64.8075 12.1131L64.8128 12.1184ZM31.9273 29.7753L31.8317 44.6462C31.8317 44.9317 31.5448 45.1273 31.2525 45.0321L15.7264 36.2037C15.3385 36.0134 14.9559 36.2988 14.9559 36.6847V54.146C14.9559 54.5319 14.4724 54.8174 14.1855 54.6271L1.54988 47.4269C1.26295 47.2366 0.970703 46.8507 0.970703 46.4647V12.4991C0.970703 12.1131 1.45423 11.8277 1.74117 12.018L31.4438 28.903C31.7307 28.9982 31.9273 29.3841 31.9273 29.7647V29.7753ZM31.3482 48.2939L18.6169 41.0038C18.33 40.8135 17.8465 41.0038 17.8465 41.4849V56.0703C17.8465 56.4562 18.1334 56.8368 18.4257 57.0324L31.1569 64.3225C31.4438 64.5128 31.9273 64.2273 31.9273 63.8414V49.256C31.9273 48.8701 31.6404 48.4895 31.3482 48.2939Z" fill="white"/>
</g>
<defs>
<clipPath id="clip0_281_381">
<rect width="185.846" height="63.4379" fill="white" transform="translate(0.970703 0.9375)"/>
</clipPath>
</defs>
</svg>
