<svg width="138" height="105" viewBox="0 0 138 105" fill="none" xmlns="http://www.w3.org/2000/svg">
<path d="M57.4764 36.5299C57.5988 36.625 57.6937 36.7025 57.7931 36.7755C59.1467 37.7663 61.1464 37.41 62.0194 35.9987C62.1885 35.7257 62.368 35.6564 62.6692 35.6571C66.1909 35.6675 69.7125 35.6881 73.2327 35.6453C74.0264 35.6357 74.6472 35.7648 75.0685 36.4716C75.1486 36.6059 75.2821 36.7091 75.3919 36.8257C80.1953 41.9205 85.9599 45.1156 93.0671 45.6188C96.6088 45.8696 100.067 45.4292 103.416 44.2244C103.915 44.0452 104.418 43.8733 104.932 43.7456C107.208 43.1805 109.532 42.9895 111.869 42.9113C112.186 42.9009 112.502 42.881 112.936 42.8596C112.772 42.3447 112.673 41.8762 112.476 41.4535C111.922 40.2665 111.055 39.3023 110.127 38.3963C108.044 36.3624 105.651 34.7335 103.205 33.1717C101.307 31.9603 99.2515 31.1717 97.042 30.7667C93.6197 30.1396 90.204 30.3159 86.7958 30.8832C82.7965 31.5487 78.9484 32.735 75.2013 34.2613C74.9914 34.3469 74.7511 34.3986 74.5241 34.3993C70.6441 34.4074 66.765 34.4052 62.885 34.4052C62.753 34.4052 62.6217 34.4052 62.5364 34.4052C62.3881 33.9264 62.2583 33.5074 62.1129 33.0374C62.1292 33.0264 62.1848 32.9961 62.2316 32.9563C64.479 31.0345 66.7249 29.1105 68.9753 27.1916C69.0747 27.1068 69.2045 27.0478 69.3291 27.0057C70.346 26.6634 71.3747 26.355 72.3813 25.9847C76.233 24.5668 79.8927 22.7837 83.1273 20.2274C85.3094 18.5033 87.1815 16.507 88.3275 13.9434C89.2287 11.9272 89.7405 9.7833 90.1899 7.63059C90.5645 5.83347 90.8093 4.02012 90.5734 2.17947C90.4814 1.46091 90.3257 0.754903 89.8139 0.175781C89.7256 0.243653 89.6574 0.295294 89.5906 0.348411C87.8024 1.74863 85.9621 3.07213 83.8779 4.01495C82.6548 4.56825 81.3761 5.01384 80.1908 5.63649C76.612 7.51624 73.7119 10.1485 71.5906 13.5959C69.2905 17.3348 68.3396 21.4402 68.2699 25.7811C68.2662 26.0194 68.2069 26.1846 68.0162 26.3469C65.8289 28.206 63.6475 30.0732 61.4728 31.9471C61.277 32.116 61.1405 32.1322 60.9031 32.0105C59.8143 31.4491 58.741 31.5339 57.7649 32.2554C56.8022 32.9666 56.455 33.9544 56.7043 35.1208C56.7629 35.3952 56.7139 35.528 56.4832 35.6852C54.2937 37.1776 52.113 38.6841 49.9294 40.1853C49.2329 40.6641 48.5335 41.14 47.8288 41.6217C47.7473 41.5302 47.6916 41.466 47.6338 41.4033C46.3907 40.068 44.1848 40.161 43.0907 41.6165C42.909 41.8585 42.7792 41.9079 42.4944 41.8098C39.325 40.7113 36.1505 39.6283 32.9774 38.5402C32.2349 38.2857 31.4925 38.0289 30.75 37.7729C30.7574 37.6483 30.7611 37.5634 30.7671 37.4779C30.8538 36.2119 30.193 35.0942 29.0811 34.6258C27.95 34.1492 26.4822 34.4679 25.6737 35.3657C24.633 36.521 24.7072 38.268 25.8413 39.3141C27.0125 40.3941 28.8794 40.3513 29.9875 39.1975C30.1804 38.9969 30.3257 38.9577 30.5853 39.047C34.4556 40.3816 38.3289 41.7095 42.2059 43.0241C42.4766 43.1164 42.5181 43.2595 42.5307 43.5029C42.6071 45.0168 43.9845 46.2156 45.5414 46.1389C47.1939 46.057 48.4541 44.746 48.3436 43.1828C48.3228 42.884 48.4244 42.7423 48.6455 42.5933C49.5452 41.9876 50.436 41.3687 51.3305 40.7541C53.3717 39.351 55.4129 37.9471 57.4749 36.5299H57.4764ZM124.479 24.5586C124.479 24.8028 124.479 24.9858 124.479 25.1688C124.479 43.1296 124.479 61.0913 124.481 79.0522C124.481 79.4815 124.489 79.9138 124.538 80.3395C124.742 82.1469 125.614 83.4977 127.311 84.2687C128.174 84.6604 129.086 84.9075 130.026 84.9415C131.803 85.0057 133.582 85.0138 135.36 85.013C135.666 85.013 136 84.9053 136.272 84.7578C137.046 84.3395 137.366 83.4159 137.124 82.4443C136.916 81.6114 136.116 80.9828 135.216 80.9732C134.092 80.9614 132.968 80.9754 131.843 80.9666C131.499 80.9636 131.151 80.9444 130.81 80.895C129.754 80.7408 129.229 80.1263 129.22 79.064C129.219 78.9658 129.22 78.8677 129.22 78.7689C129.22 60.0953 129.22 41.4218 129.22 22.7475C129.22 21.7029 128.742 21.0006 127.745 20.6531C127.436 20.5454 127.095 20.4834 126.769 20.4819C124.088 20.4686 121.407 20.4745 118.726 20.4753C118.627 20.4753 118.529 20.4819 118.431 20.4937C117.324 20.6206 116.611 21.4188 116.604 22.5402C116.597 23.6859 117.232 24.3963 118.397 24.5358C118.568 24.5564 118.742 24.5557 118.915 24.5557C120.62 24.5572 122.324 24.5564 124.029 24.5564C124.162 24.5564 124.296 24.5564 124.48 24.5564L124.479 24.5586Z" fill="white"/>
<path d="M0.499023 54.5812C0.612507 54.3259 0.689645 54.0456 0.84689 53.8198C1.26225 53.223 1.85637 52.9434 2.58919 52.9456C4.0845 52.95 5.57906 52.9464 7.07437 52.9464C7.20639 52.9464 7.33916 52.9464 7.5194 52.9464C7.5194 52.7619 7.5194 52.6181 7.5194 52.4749C7.5194 48.6291 7.5194 44.7833 7.5194 40.9375C7.5194 39.7984 7.97704 39.1013 8.93683 38.7723C10.0309 38.3968 11.2829 38.7132 11.9067 39.524C12.1826 39.8825 12.2634 40.2942 12.2634 40.7368C12.2605 44.6313 12.262 48.5266 12.262 52.4211C12.262 52.579 12.262 52.7368 12.262 52.9464H12.7656C17.4851 52.9464 22.2054 52.9427 26.925 52.9537C27.2758 52.9545 27.6497 52.9973 27.9731 53.1227C28.938 53.4967 29.3801 54.4307 29.1583 55.5115C28.9618 56.4676 28.2527 57.0105 27.1624 57.0113C22.3686 57.015 17.5742 57.0127 12.7804 57.0127H12.262V57.4458C12.262 63.3927 12.2493 69.3395 12.2753 75.2857C12.279 76.2115 12.3895 77.1507 12.5713 78.0596C12.9785 80.095 14.272 81.2975 16.3066 81.7121C19.4952 82.3613 22.6023 82.0692 25.6003 80.8217C26.5393 80.4307 27.4338 79.9231 28.3194 79.4177C29.4758 78.7575 31.2136 79.6605 31.2529 80.9854C31.2811 81.9216 30.9051 82.6416 30.0551 83.1072C25.8844 85.3927 21.4192 86.2492 16.6922 85.8596C15.3201 85.7468 13.9798 85.4974 12.6818 85.0275C10.1629 84.1164 8.68613 82.2927 7.9852 79.7763C7.58986 78.3569 7.44523 76.9072 7.44597 75.4399C7.44671 69.4687 7.44597 63.4974 7.44597 57.5262C7.44597 57.3698 7.44597 57.2134 7.44597 57.0127H7.00687C5.61096 57.0127 4.2143 57.0127 2.81838 57.0127C1.46178 57.0127 0.98485 56.694 0.499023 55.4665C0.499023 55.1714 0.499023 54.877 0.499023 54.5819L0.499023 54.5812Z" fill="white"/>
<path d="M57.4759 36.5299C55.4139 37.9471 53.3727 39.351 51.3315 40.7541C50.4377 41.3687 49.5462 41.9869 48.6465 42.5933C48.4254 42.7423 48.3231 42.884 48.3446 43.1827C48.4551 44.7453 47.1949 46.057 45.5424 46.1389C43.9862 46.2156 42.6089 45.016 42.5317 43.5029C42.5191 43.2587 42.4776 43.1156 42.2068 43.0241C38.3299 41.7088 34.4566 40.3816 30.5863 39.047C30.3267 38.9577 30.1813 38.9968 29.9885 39.1975C28.8804 40.3513 27.0135 40.3941 25.8423 39.3141C24.7082 38.268 24.634 36.521 25.6747 35.3657C26.4831 34.4679 27.9503 34.1499 29.0821 34.6258C30.194 35.0935 30.8548 36.2112 30.768 37.4779C30.7621 37.5627 30.7584 37.6483 30.751 37.7729C31.4934 38.0289 32.2359 38.2857 32.9784 38.5402C36.1514 39.6283 39.326 40.7113 42.4954 41.8098C42.7802 41.9087 42.91 41.8585 43.0917 41.6165C44.1858 40.161 46.3916 40.068 47.6348 41.4033C47.6926 41.466 47.7482 41.5302 47.8298 41.6217C48.5345 41.14 49.2332 40.6649 49.9304 40.1853C52.114 38.684 54.2939 37.1776 56.4842 35.6852C56.7141 35.5288 56.7638 35.3952 56.7052 35.1208C56.456 33.9544 56.8032 32.9666 57.7659 32.2554C58.742 31.5339 59.8153 31.4483 60.9041 32.0105C61.1415 32.133 61.278 32.116 61.4738 31.9471C63.6492 30.0732 65.8299 28.206 68.0172 26.3469C68.2078 26.1846 68.2672 26.0201 68.2709 25.7811C68.3399 21.4402 69.2907 17.3347 71.5916 13.5959C73.7129 10.1485 76.613 7.51624 80.1918 5.63649C81.3771 5.01384 82.6551 4.56825 83.8789 4.01495C85.9624 3.07213 87.8026 1.74937 89.5916 0.348411C89.6591 0.296032 89.7274 0.243653 89.8149 0.175781C90.3267 0.755641 90.4824 1.46091 90.5744 2.17947C90.8103 4.02012 90.5655 5.83347 90.1909 7.63059C89.7422 9.78404 89.2297 11.9272 88.3285 13.9434C87.1833 16.507 85.3104 18.5033 83.1283 20.2274C79.8936 22.7837 76.234 24.5668 72.3822 25.9847C71.3765 26.355 70.347 26.6627 69.3301 27.0057C69.2047 27.0478 69.0749 27.1075 68.9763 27.1916C66.7259 29.1105 64.48 31.0337 62.2325 32.9563C62.1858 32.9961 62.1309 33.0264 62.1139 33.0374C62.2592 33.5074 62.389 33.9264 62.5374 34.4052C62.6227 34.4052 62.754 34.4052 62.886 34.4052C66.7659 34.4052 70.6451 34.4074 74.5251 34.3993C74.7513 34.3993 74.9916 34.3469 75.2023 34.2613C78.9494 32.735 82.7975 31.5487 86.7968 30.8832C90.205 30.3167 93.6206 30.1396 97.0429 30.7667C99.2525 31.1717 101.308 31.9603 103.206 33.1717C105.653 34.7327 108.045 36.3624 110.128 38.3963C111.056 39.3023 111.923 40.2665 112.477 41.4535C112.674 41.8762 112.772 42.3447 112.937 42.8596C112.503 42.881 112.187 42.9009 111.87 42.9113C109.534 42.9895 107.21 43.1805 104.933 43.7456C104.419 43.8733 103.916 44.0452 103.417 44.2244C100.068 45.4292 96.6098 45.8696 93.0681 45.6188C85.9609 45.1156 80.1963 41.9205 75.3929 36.8257C75.2831 36.7091 75.1496 36.6058 75.0695 36.4716C74.6475 35.7648 74.0274 35.6357 73.2337 35.6453C69.7128 35.6881 66.1911 35.6674 62.6702 35.6571C62.369 35.6564 62.1895 35.7257 62.0204 35.9987C61.1474 37.41 59.1477 37.7663 57.7941 36.7755C57.6947 36.7032 57.5998 36.625 57.4774 36.5299H57.4759Z" fill="white"/>
<path d="M124.479 24.5577C124.295 24.5577 124.162 24.5577 124.029 24.5577C122.324 24.5577 120.619 24.5577 118.914 24.557C118.741 24.557 118.567 24.557 118.396 24.537C117.232 24.3976 116.595 23.6872 116.604 22.5415C116.611 21.4201 117.323 20.6219 118.43 20.495C118.528 20.4839 118.628 20.4765 118.726 20.4765C121.406 20.4758 124.088 20.4699 126.768 20.4832C127.094 20.4847 127.436 20.5466 127.744 20.6543C128.74 21.0018 129.22 21.7034 129.22 22.7488C129.22 41.4223 129.22 60.0958 129.22 78.7701C129.22 78.8682 129.22 78.9664 129.22 79.0652C129.228 80.1268 129.754 80.7413 130.81 80.8963C131.15 80.9457 131.498 80.9656 131.843 80.9678C132.967 80.9767 134.092 80.9627 135.216 80.9745C136.116 80.9841 136.916 81.6126 137.123 82.4455C137.366 83.4171 137.046 84.3408 136.272 84.759C136 84.9066 135.665 85.0143 135.359 85.0143C133.582 85.015 131.802 85.0069 130.026 84.9427C129.085 84.9088 128.174 84.6617 127.31 84.2699C125.614 83.4997 124.741 82.1489 124.537 80.3408C124.489 79.9151 124.481 79.4828 124.481 79.0534C124.478 61.0925 124.478 43.1309 124.478 25.17C124.478 24.9871 124.478 24.8041 124.478 24.5599L124.479 24.5577Z" fill="white"/>
<path d="M83.9034 104.713C83.5036 104.531 83.0741 104.394 82.7114 104.156C82.2315 103.841 82.0179 103.34 81.9994 102.765C81.9949 102.618 81.9972 102.47 81.9972 102.322C81.9972 87.8245 81.9972 73.3258 81.9972 58.8279C81.9972 57.3701 81.5655 56.94 80.1021 56.9393C78.8048 56.9393 77.5075 56.9393 76.2103 56.9393C75.7052 56.9393 75.2267 56.8493 74.8188 56.5269C74.1965 56.0356 73.9591 55.1252 74.2195 54.2421C74.4287 53.5339 75.1103 52.9053 75.8668 52.8987C77.9533 52.881 80.0501 52.8035 82.124 52.9747C84.5932 53.1783 86.0188 54.7489 86.2754 57.2093C86.3318 57.7523 86.3503 58.2989 86.3896 58.898C86.5046 58.7357 86.5943 58.6103 86.6833 58.4841C88.4286 56.006 90.5952 54.0363 93.476 52.9319C95.2888 52.237 97.1742 51.9847 99.1064 52.0282C101.386 52.0791 103.604 52.4347 105.707 53.3524C108.713 54.6656 110.814 56.9031 112.299 59.7626C113.857 62.7622 114.378 65.9817 114.325 69.3199C114.283 72.0112 113.85 74.6302 112.728 77.0964C111.206 80.4428 108.914 83.0735 105.479 84.5969C103.319 85.5545 101.035 85.8858 98.6888 85.8747C96.0743 85.8629 93.5583 85.3967 91.1908 84.251C89.6888 83.5243 88.3507 82.5682 87.1625 81.404C87.0498 81.2934 86.9756 81.1436 86.8829 81.0123C86.8347 81.0396 86.7864 81.0669 86.7382 81.0934C86.7382 81.2314 86.7382 81.3701 86.7382 81.5081C86.7382 88.4619 86.7382 95.4166 86.7382 102.37C86.7382 103.699 86.2531 104.322 84.9611 104.66C84.927 104.669 84.898 104.696 84.8669 104.713H83.9034ZM86.739 70.3963C86.739 72.3992 86.7434 74.4015 86.733 76.4044C86.7316 76.6634 86.8072 76.8419 87.009 76.9998C87.7655 77.5914 88.4872 78.231 89.2705 78.7851C92.0527 80.7556 95.0893 81.9632 98.5798 81.8799C103.474 81.764 107.027 79.331 108.671 74.7467C110.019 70.9887 110.085 67.1348 108.893 63.3421C107.566 59.1185 104.692 56.5372 100.171 56.0245C97.0133 55.6667 94.1102 56.3749 91.5483 58.3004C89.5175 59.8268 88.0474 61.8135 86.8235 64.0009C86.7516 64.13 86.7427 64.307 86.7427 64.4612C86.7375 66.4391 86.739 68.4177 86.739 70.3956V70.3963Z" fill="white"/>
<path d="M69.8021 68.7469C69.7865 67.4374 69.6768 65.9044 69.2874 64.4112C67.7921 58.6783 64.2793 54.7535 58.6073 52.8605C55.6605 51.8771 52.6105 51.7886 49.5599 52.2969C43.6795 53.2759 39.5637 56.5765 37.2206 61.9715C35.5688 65.7738 35.4531 69.7805 36.487 73.7524C37.9349 79.3127 41.4417 83.0988 46.9282 84.98C49.7475 85.9464 52.6654 86.0837 55.6026 85.6934C60.6656 85.0213 64.6108 82.5543 67.3485 78.2578C69.1479 75.433 69.7828 72.2792 69.8021 68.7462V68.7469ZM63.2134 76.3935C61.1952 79.5488 58.3084 81.3769 54.5576 81.7893C52.1633 82.0519 49.8106 81.8528 47.6032 80.8221C44.5577 79.3998 42.5076 77.0383 41.4848 73.8808C40.2609 70.0999 40.3106 66.2917 42.047 62.6768C44.0259 58.5573 47.3792 56.2784 52.0105 55.9789C54.4107 55.824 56.7315 56.1589 58.8454 57.357C62.0222 59.1578 64.0145 61.8638 64.7621 65.4256C65.0054 66.5846 65.0796 67.7797 65.2309 68.9579C65.1159 71.6034 64.6583 74.1353 63.2127 76.3943L63.2134 76.3935Z" fill="white"/>
</svg>
