<svg width="112" height="27" viewBox="0 0 112 27" fill="none" xmlns="http://www.w3.org/2000/svg">
<rect width="111.894" height="27" fill="#00FFFF"/>
<path d="M27.3122 6.45455L31.3605 18.3011H31.5238L35.5721 6.45455H37.9443L32.7099 21H30.1744L24.94 6.45455H27.3122ZM39.8743 21V10.0909H41.9979V21H39.8743ZM40.9468 8.40767C40.5775 8.40767 40.2602 8.28456 39.9951 8.03835C39.7347 7.7874 39.6044 7.48911 39.6044 7.14347C39.6044 6.79309 39.7347 6.49479 39.9951 6.24858C40.2602 5.99763 40.5775 5.87216 40.9468 5.87216C41.3161 5.87216 41.631 5.99763 41.8914 6.24858C42.1565 6.49479 42.2891 6.79309 42.2891 7.14347C42.2891 7.48911 42.1565 7.7874 41.8914 8.03835C41.631 8.28456 41.3161 8.40767 40.9468 8.40767ZM44.8548 21V10.0909H46.9074V11.8239H47.021C47.2199 11.2367 47.5702 10.7751 48.0721 10.4389C48.5788 10.098 49.1517 9.92756 49.7909 9.92756C49.9235 9.92756 50.0797 9.93229 50.2596 9.94176C50.4443 9.95123 50.5887 9.96307 50.6929 9.97727V12.0085C50.6076 11.9848 50.4561 11.9588 50.2383 11.9304C50.0205 11.8973 49.8027 11.8807 49.5849 11.8807C49.083 11.8807 48.6356 11.9872 48.2426 12.2003C47.8543 12.4086 47.5466 12.6998 47.3193 13.0739C47.092 13.4432 46.9784 13.8646 46.9784 14.3381V21H44.8548ZM58.2674 10.0909V11.7955H52.3086V10.0909H58.2674ZM53.9066 7.47727H56.0302V17.7969C56.0302 18.2088 56.0918 18.5189 56.2149 18.7273C56.338 18.9309 56.4966 19.0705 56.6907 19.1463C56.8896 19.2173 57.105 19.2528 57.337 19.2528C57.5075 19.2528 57.6566 19.241 57.7845 19.2173C57.9123 19.1937 58.0118 19.1747 58.0828 19.1605L58.4663 20.9148C58.3432 20.9621 58.168 21.0095 57.9407 21.0568C57.7135 21.1089 57.4294 21.1373 57.0885 21.142C56.5298 21.1515 56.0089 21.0521 55.526 20.8438C55.043 20.6354 54.6524 20.3134 54.3541 19.8778C54.0558 19.4422 53.9066 18.8954 53.9066 18.2372V7.47727ZM67.527 16.4759V10.0909H69.6577V21H67.5696V19.1108H67.456C67.2051 19.6932 66.8026 20.1785 66.2486 20.5668C65.6994 20.9503 65.0152 21.142 64.1961 21.142C63.4953 21.142 62.875 20.9882 62.3353 20.6804C61.8002 20.3679 61.3788 19.9062 61.0711 19.2955C60.768 18.6847 60.6165 17.9295 60.6165 17.0298V10.0909H62.7401V16.7741C62.7401 17.5175 62.9461 18.1094 63.358 18.5497C63.7699 18.9901 64.305 19.2102 64.9631 19.2102C65.3608 19.2102 65.7562 19.1108 66.1492 18.9119C66.5469 18.7131 66.876 18.4124 67.1364 18.0099C67.4016 17.6075 67.5318 17.0961 67.527 16.4759ZM75.6858 21.2415C74.9945 21.2415 74.3695 21.1136 73.8108 20.858C73.2521 20.5975 72.8093 20.2211 72.4826 19.7287C72.1607 19.2363 71.9997 18.6326 71.9997 17.9176C71.9997 17.3021 72.1181 16.7955 72.3548 16.3977C72.5915 16 72.9111 15.6851 73.3136 15.4531C73.7161 15.2211 74.1659 15.0459 74.663 14.9276C75.1602 14.8092 75.6668 14.7192 76.1829 14.6577C76.8363 14.5819 77.3666 14.5204 77.7738 14.473C78.181 14.4209 78.477 14.3381 78.6616 14.2244C78.8463 14.1108 78.9386 13.9261 78.9386 13.6705V13.6207C78.9386 13.0005 78.7634 12.5199 78.413 12.179C78.0674 11.8381 77.5513 11.6676 76.8647 11.6676C76.1498 11.6676 75.5863 11.8262 75.1744 12.1435C74.7672 12.456 74.4855 12.804 74.3292 13.1875L72.3335 12.733C72.5702 12.0701 72.9159 11.535 73.3704 11.1278C73.8297 10.7159 74.3576 10.4176 74.9542 10.233C75.5508 10.0436 76.1782 9.94886 76.8363 9.94886C77.2719 9.94886 77.7336 10.0009 78.2213 10.1051C78.7137 10.2045 79.173 10.3892 79.5991 10.6591C80.03 10.929 80.3827 11.3149 80.6574 11.8168C80.932 12.3139 81.0693 12.9602 81.0693 13.7557V21H78.9954V19.5085H78.9102C78.7729 19.7831 78.5669 20.053 78.2923 20.3182C78.0177 20.5833 77.6649 20.8035 77.2341 20.9787C76.8032 21.1539 76.2871 21.2415 75.6858 21.2415ZM76.1474 19.5369C76.7345 19.5369 77.2364 19.4209 77.6531 19.1889C78.0745 18.9569 78.3941 18.6539 78.6119 18.2798C78.8344 17.901 78.9457 17.4962 78.9457 17.0653V15.6591C78.87 15.7348 78.7232 15.8059 78.5054 15.8722C78.2923 15.9337 78.0485 15.9882 77.7738 16.0355C77.4992 16.0781 77.2317 16.1184 76.9713 16.1562C76.7109 16.1894 76.4931 16.2178 76.3179 16.2415C75.9059 16.2936 75.5295 16.3812 75.1886 16.5043C74.8524 16.6274 74.5825 16.8049 74.379 17.0369C74.1801 17.2642 74.0807 17.5672 74.0807 17.946C74.0807 18.4716 74.2748 18.8693 74.663 19.1392C75.0513 19.4044 75.5461 19.5369 76.1474 19.5369ZM86.0214 6.45455V21H83.8978V6.45455H86.0214Z" fill="black"/>
</svg>
